<svg viewBox="0 0 120 120" xmlns="http://www.w3.org/2000/svg">
  <rect width="120" height="120" rx="26" fill="#0D111C"/>
  <g transform="translate(0,4)">
    <path d="M26 83 C26 79 42 77 60 77 C78 77 94 79 94 83 C94 88 78 91 60 91 C42 91 26 88 26 83 Z" fill="#E5B64A"/>
    <path d="M71 23 C61 38 50 60 45 82 L73 82 C74 58 78 38 71 23 Z" fill="#E5B64A"/>
    <g stroke="#0D111C" stroke-width="3" stroke-linecap="round" stroke-linejoin="round" fill="#0D111C">
      <path d="M68 30 L58 52 L52 72" fill="none"/>
      <circle cx="58" cy="52" r="3.4"/>
      <circle cx="52" cy="72" r="3.4"/>
    </g>
    <path d="M71 12 Q73 21 82 23 Q73 25 71 34 Q69 25 60 23 Q69 21 71 12 Z" fill="#F9E29A"/>
  </g>
</svg>
